<?xml version="1.0" encoding="UTF-8"?>
<!DOCTYPE svg PUBLIC "-//W3C//DTD SVG 1.1//EN" "http://www.w3.org/Graphics/SVG/1.1/DTD/svg11.dtd">
<svg xmlns="http://www.w3.org/2000/svg" version="1.1" viewBox="0 0 29 29" stroke="none">
	<rect width="100%" height="100%" fill="#ffffff"/>
	<path d="M4,4h7v1h-7z M15,4h2v2h-2z M18,4h7v1h-7z M4,5h1v6h-1z M10,5h1v6h-1z M13,5h1v3h-1z M14,5h1v1h-1z M18,5h1v6h-1z M24,5h1v6h-1z M6,6h3v3h-3z M12,6h1v2h-1z M16,6h1v2h-1z M20,6h3v3h-3z M14,7h1v2h-1z M15,8h1v1h-1z M13,9h1v1h-1z M5,10h5v1h-5z M12,10h1v1h-1z M14,10h1v1h-1z M16,10h1v3h-1z M19,10h5v1h-5z M13,11h1v5h-1z M15,11h1v2h-1z M7,12h2v2h-2z M10,12h2v1h-2z M14,12h1v2h-1z M21,12h2v1h-2z M5,13h2v1h-2z M9,13h1v1h-1z M11,13h1v1h-1z M18,13h1v1h-1z M20,13h1v2h-1z M22,13h3v1h-3z M4,14h1v1h-1z M6,14h1v3h-1z M10,14h1v1h-1z M15,14h1v1h-1z M24,14h1v1h-1z M5,15h1v2h-1z M8,15h2v2h-2z M11,15h2v1h-2z M18,15h1v3h-1z M22,15h1v1h-1z M7,16h1v1h-1z M10,16h1v1h-1z M16,16h1v2h-1z M12,17h2v2h-2z M15,17h1v1h-1z M21,17h1v1h-1z M24,17h1v1h-1z M4,18h7v1h-7z M19,18h2v1h-2z M4,19h1v6h-1z M10,19h1v6h-1z M13,19h1v1h-1z M15,19h1v1h-1z M18,19h1v1h-1z M20,19h3v2h-3z M23,19h1v1h-1z M6,20h3v3h-3z M12,20h1v2h-1z M14,20h1v5h-1z M16,20h1v4h-1z M24,20h1v1h-1z M13,21h1v2h-1z M15,21h1v1h-1z M17,21h1v1h-1z M20,21h2v1h-2z M18,22h1v3h-1z M22,22h3v1h-3z M17,23h1v2h-1z M19,23h1v2h-1z M24,23h1v1h-1z M5,24h5v1h-5z M21,24h1v1h-1z M23,24h1v1h-1z" fill="#000000"/>
</svg>
