<?xml version="1.0" encoding="UTF-8"?>
<!DOCTYPE svg PUBLIC "-//W3C//DTD SVG 1.1//EN" "http://www.w3.org/Graphics/SVG/1.1/DTD/svg11.dtd">
<svg xmlns="http://www.w3.org/2000/svg" version="1.1" viewBox="0 0 29 29" stroke="none">
	<rect width="100%" height="100%" fill="#ffffff"/>
	<path d="M4,4h7v1h-7z M13,4h1v3h-1z M14,4h1v1h-1z M16,4h1v1h-1z M18,4h7v1h-7z M4,5h1v6h-1z M10,5h1v6h-1z M12,5h1v1h-1z M15,5h1v1h-1z M18,5h1v6h-1z M24,5h1v6h-1z M6,6h3v3h-3z M16,6h1v3h-1z M20,6h3v3h-3z M14,7h1v4h-1z M15,7h1v1h-1z M13,8h1v1h-1z M12,9h1v3h-1z M15,9h1v1h-1z M5,10h5v1h-5z M16,10h1v1h-1z M19,10h5v1h-5z M13,11h1v1h-1z M15,11h1v4h-1z M8,12h4v1h-4z M14,12h1v1h-1z M18,12h2v1h-2z M23,12h1v1h-1z M4,13h5v1h-5z M11,13h1v2h-1z M13,13h1v1h-1z M16,13h1v5h-1z M18,13h1v1h-1z M22,13h1v3h-1z M24,13h1v3h-1z M5,14h2v3h-2z M8,14h1v1h-1z M10,14h1v1h-1z M14,14h1v1h-1z M17,14h1v1h-1z M4,15h1v1h-1z M7,15h1v2h-1z M9,15h1v2h-1z M12,15h1v1h-1z M18,15h2v2h-2z M21,15h1v1h-1z M23,15h1v1h-1z M10,16h2v1h-2z M15,16h1v2h-1z M20,16h1v1h-1z M12,17h2v3h-2z M17,17h1v1h-1z M24,17h1v1h-1z M4,18h7v1h-7z M14,18h1v1h-1z M18,18h6v1h-6z M4,19h1v6h-1z M10,19h1v6h-1z M15,19h1v1h-1z M17,19h1v4h-1z M19,19h2v1h-2z M23,19h2v3h-2z M6,20h3v3h-3z M12,20h1v1h-1z M18,20h1v2h-1z M13,21h1v1h-1z M15,21h1v2h-1z M19,21h1v1h-1z M21,21h1v3h-1z M16,22h1v1h-1z M20,22h1v3h-1z M22,22h1v1h-1z M14,23h1v2h-1z M23,23h1v2h-1z M5,24h5v1h-5z M24,24h1v1h-1z" fill="#000000"/>
</svg>
