<?xml version="1.0" encoding="UTF-8"?>
<!DOCTYPE svg PUBLIC "-//W3C//DTD SVG 1.1//EN" "http://www.w3.org/Graphics/SVG/1.1/DTD/svg11.dtd">
<svg xmlns="http://www.w3.org/2000/svg" version="1.1" viewBox="0 0 29 29" stroke="none">
	<rect width="100%" height="100%" fill="#ffffff"/>
	<path d="M4,4h7v1h-7z M12,4h1v3h-1z M15,4h1v2h-1z M18,4h7v1h-7z M4,5h1v6h-1z M10,5h1v6h-1z M13,5h1v1h-1z M18,5h1v6h-1z M24,5h1v6h-1z M6,6h3v3h-3z M16,6h1v1h-1z M20,6h3v3h-3z M14,7h1v4h-1z M13,8h1v1h-1z M15,8h1v1h-1z M12,9h1v5h-1z M16,9h1v3h-1z M5,10h5v1h-5z M19,10h5v1h-5z M13,11h1v2h-1z M15,11h1v1h-1z M6,12h3v1h-3z M10,12h1v1h-1z M14,12h1v2h-1z M17,12h3v1h-3z M22,12h3v1h-3z M8,13h2v1h-2z M11,13h1v3h-1z M16,13h2v2h-2z M19,13h1v1h-1z M21,13h2v1h-2z M24,13h1v5h-1z M5,14h4v1h-4z M10,14h1v1h-1z M13,14h1v3h-1z M15,14h1v1h-1z M18,14h1v1h-1z M20,14h1v3h-1z M23,14h1v2h-1z M4,15h1v1h-1z M7,15h1v1h-1z M9,15h1v1h-1z M19,15h1v1h-1z M21,15h2v1h-2z M5,16h2v1h-2z M8,16h1v1h-1z M10,16h1v1h-1z M12,16h1v2h-1z M16,16h1v1h-1z M18,16h1v1h-1z M22,16h1v2h-1z M15,17h1v2h-1z M17,17h1v2h-1z M19,17h1v3h-1z M21,17h1v2h-1z M4,18h7v1h-7z M13,18h1v2h-1z M16,18h1v1h-1z M23,18h1v2h-1z M4,19h1v6h-1z M10,19h1v6h-1z M14,19h1v1h-1z M24,19h1v1h-1z M6,20h3v3h-3z M12,20h1v3h-1z M15,20h2v1h-2z M18,20h1v3h-1z M21,20h2v2h-2z M17,21h1v1h-1z M19,21h2v1h-2z M14,22h2v2h-2z M20,22h1v1h-1z M13,23h1v2h-1z M23,23h1v1h-1z M5,24h5v1h-5z M14,24h1v1h-1z M16,24h1v1h-1z M18,24h2v1h-2z M21,24h2v1h-2z" fill="#000000"/>
</svg>
