<?xml version="1.0" encoding="UTF-8"?>
<!DOCTYPE svg PUBLIC "-//W3C//DTD SVG 1.1//EN" "http://www.w3.org/Graphics/SVG/1.1/DTD/svg11.dtd">
<svg xmlns="http://www.w3.org/2000/svg" version="1.1" viewBox="0 0 29 29" stroke="none">
	<rect width="100%" height="100%" fill="#ffffff"/>
	<path d="M4,4h7v1h-7z M14,4h1v4h-1z M15,4h1v1h-1z M18,4h7v1h-7z M4,5h1v6h-1z M10,5h1v6h-1z M13,5h1v1h-1z M18,5h1v6h-1z M24,5h1v6h-1z M6,6h3v3h-3z M12,6h1v2h-1z M15,6h2v1h-2z M20,6h3v3h-3z M13,7h1v1h-1z M15,8h2v2h-2z M5,10h5v1h-5z M12,10h1v1h-1z M14,10h1v1h-1z M16,10h1v3h-1z M19,10h5v1h-5z M13,11h1v1h-1z M7,12h2v2h-2z M10,12h2v1h-2z M14,12h2v3h-2z M21,12h1v3h-1z M22,12h1v1h-1z M4,13h1v4h-1z M6,13h1v3h-1z M9,13h1v1h-1z M17,13h1v2h-1z M20,13h1v2h-1z M23,13h1v5h-1z M24,13h1v1h-1z M5,14h1v3h-1z M10,14h1v1h-1z M13,14h1v1h-1z M16,14h1v2h-1z M22,14h1v1h-1z M7,15h3v1h-3z M11,15h1v2h-1z M18,15h1v1h-1z M7,16h1v1h-1z M9,16h2v1h-2z M12,16h1v3h-1z M14,16h1v4h-1z M22,16h1v2h-1z M24,16h1v1h-1z M16,17h3v1h-3z M4,18h7v1h-7z M13,18h1v1h-1z M16,18h1v1h-1z M19,18h3v1h-3z M4,19h1v6h-1z M10,19h1v6h-1z M15,19h1v3h-1z M18,19h1v1h-1z M20,19h1v1h-1z M22,19h1v3h-1z M23,19h1v1h-1z M6,20h3v3h-3z M12,20h2v1h-2z M17,20h1v1h-1z M19,20h1v1h-1z M24,20h1v1h-1z M12,21h1v1h-1z M20,21h2v1h-2z M13,22h1v3h-1z M20,22h1v1h-1z M23,22h2v1h-2z M14,23h3v1h-3z M18,23h2v2h-2z M24,23h1v1h-1z M5,24h5v1h-5z M14,24h1v1h-1z M17,24h1v1h-1z M20,24h1v1h-1z M23,24h1v1h-1z" fill="#000000"/>
</svg>
