<?xml version="1.0" encoding="UTF-8"?>
<!DOCTYPE svg PUBLIC "-//W3C//DTD SVG 1.1//EN" "http://www.w3.org/Graphics/SVG/1.1/DTD/svg11.dtd">
<svg xmlns="http://www.w3.org/2000/svg" version="1.1" viewBox="0 0 29 29" stroke="none">
	<rect width="100%" height="100%" fill="#ffffff"/>
	<path d="M4,4h7v1h-7z M14,4h1v5h-1z M16,4h1v1h-1z M18,4h7v1h-7z M4,5h1v6h-1z M10,5h1v6h-1z M13,5h1v1h-1z M18,5h1v6h-1z M24,5h1v6h-1z M6,6h3v3h-3z M15,6h1v1h-1z M20,6h3v3h-3z M16,7h1v2h-1z M12,8h2v1h-2z M15,9h1v1h-1z M5,10h5v1h-5z M12,10h1v4h-1z M14,10h1v1h-1z M16,10h1v3h-1z M19,10h5v1h-5z M15,11h1v1h-1z M6,12h2v1h-2z M10,12h2v1h-2z M14,12h1v1h-1z M17,12h2v1h-2z M20,12h1v1h-1z M4,13h2v1h-2z M9,13h1v1h-1z M11,13h1v2h-1z M13,13h1v2h-1z M19,13h1v2h-1z M22,13h3v1h-3z M6,14h1v1h-1z M8,14h1v2h-1z M10,14h1v1h-1z M15,14h1v1h-1z M18,14h1v2h-1z M20,14h2v1h-2z M4,15h2v1h-2z M7,15h1v2h-1z M9,15h1v2h-1z M12,15h1v4h-1z M14,15h1v2h-1z M21,15h2v1h-2z M24,15h1v1h-1z M6,16h1v1h-1z M10,16h1v1h-1z M15,16h1v6h-1z M17,16h1v4h-1z M20,16h1v1h-1z M22,16h1v4h-1z M16,17h1v1h-1z M18,17h1v3h-1z M21,17h1v1h-1z M23,17h1v1h-1z M4,18h7v1h-7z M13,18h2v1h-2z M20,18h1v1h-1z M4,19h1v6h-1z M10,19h1v6h-1z M14,19h1v2h-1z M16,19h1v2h-1z M19,19h1v1h-1z M23,19h2v1h-2z M6,20h3v3h-3z M24,20h1v1h-1z M12,21h1v2h-1z M17,21h1v1h-1z M19,21h2v3h-2z M21,21h3v1h-3z M13,22h1v1h-1z M18,22h1v1h-1z M14,23h1v1h-1z M17,23h1v1h-1z M21,23h1v2h-1z M23,23h2v1h-2z M5,24h5v1h-5z M13,24h1v1h-1z M16,24h1v1h-1z M18,24h2v1h-2z M23,24h1v1h-1z" fill="#000000"/>
</svg>
