<?xml version="1.0" encoding="UTF-8"?>
<!DOCTYPE svg PUBLIC "-//W3C//DTD SVG 1.1//EN" "http://www.w3.org/Graphics/SVG/1.1/DTD/svg11.dtd">
<svg xmlns="http://www.w3.org/2000/svg" version="1.1" viewBox="0 0 29 29" stroke="none">
	<rect width="100%" height="100%" fill="#ffffff"/>
	<path d="M4,4h7v1h-7z M13,4h2v1h-2z M16,4h1v1h-1z M18,4h7v1h-7z M4,5h1v6h-1z M10,5h1v6h-1z M12,5h1v6h-1z M14,5h1v1h-1z M18,5h1v6h-1z M24,5h1v6h-1z M6,6h3v3h-3z M13,6h1v2h-1z M15,6h2v2h-2z M20,6h3v3h-3z M14,8h1v1h-1z M13,9h1v1h-1z M5,10h5v1h-5z M14,10h1v1h-1z M16,10h1v4h-1z M19,10h5v1h-5z M13,11h1v1h-1z M6,12h1v2h-1z M9,12h4v1h-4z M15,12h1v1h-1z M17,12h1v1h-1z M19,12h5v1h-5z M5,13h1v1h-1z M8,13h2v1h-2z M12,13h2v1h-2z M22,13h1v1h-1z M4,14h1v1h-1z M7,14h1v3h-1z M10,14h2v1h-2z M13,14h1v2h-1z M17,14h1v1h-1z M23,14h2v1h-2z M5,15h2v1h-2z M9,15h1v1h-1z M11,15h1v2h-1z M14,15h1v5h-1z M15,15h2v1h-2z M20,15h1v1h-1z M22,15h1v2h-1z M5,16h1v1h-1z M10,16h1v1h-1z M12,16h1v4h-1z M17,16h1v1h-1z M23,16h1v1h-1z M16,17h1v1h-1z M18,17h1v1h-1z M4,18h7v1h-7z M13,18h1v1h-1z M15,18h1v4h-1z M17,18h1v3h-1z M19,18h2v1h-2z M22,18h1v1h-1z M24,18h1v3h-1z M4,19h1v6h-1z M10,19h1v6h-1z M16,19h1v1h-1z M18,19h1v6h-1z M23,19h1v2h-1z M6,20h3v3h-3z M22,20h1v1h-1z M14,21h1v2h-1z M19,21h1v1h-1z M21,21h1v3h-1z M12,22h2v1h-2z M16,22h2v1h-2z M23,22h1v3h-1z M24,22h1v1h-1z M15,23h1v2h-1z M19,23h1v1h-1z M22,23h1v1h-1z M5,24h5v1h-5z M13,24h1v1h-1z M17,24h1v1h-1z M20,24h1v1h-1z M24,24h1v1h-1z" fill="#000000"/>
</svg>
