<?xml version="1.0" encoding="UTF-8"?>
<!DOCTYPE svg PUBLIC "-//W3C//DTD SVG 1.1//EN" "http://www.w3.org/Graphics/SVG/1.1/DTD/svg11.dtd">
<svg xmlns="http://www.w3.org/2000/svg" version="1.1" viewBox="0 0 29 29" stroke="none">
	<rect width="100%" height="100%" fill="#ffffff"/>
	<path d="M4,4h7v1h-7z M14,4h2v1h-2z M18,4h7v1h-7z M4,5h1v6h-1z M10,5h1v6h-1z M16,5h1v1h-1z M18,5h1v6h-1z M24,5h1v6h-1z M6,6h3v3h-3z M13,6h3v1h-3z M20,6h3v3h-3z M14,7h3v2h-3z M12,8h2v1h-2z M5,10h5v1h-5z M12,10h1v3h-1z M14,10h1v1h-1z M16,10h1v3h-1z M19,10h5v1h-5z M6,12h2v1h-2z M10,12h2v1h-2z M13,12h2v1h-2z M17,12h2v1h-2z M20,12h1v1h-1z M4,13h1v3h-1z M7,13h2v1h-2z M13,13h1v1h-1z M15,13h1v4h-1z M18,13h2v1h-2z M21,13h4v1h-4z M6,14h1v1h-1z M8,14h5v1h-5z M19,14h2v1h-2z M22,14h1v1h-1z M24,14h1v1h-1z M7,15h2v2h-2z M11,15h4v1h-4z M16,15h2v2h-2z M23,15h1v2h-1z M10,16h1v1h-1z M13,16h1v1h-1z M20,16h3v1h-3z M24,16h1v1h-1z M12,17h1v2h-1z M16,17h1v1h-1z M18,17h1v1h-1z M21,17h1v1h-1z M4,18h7v1h-7z M17,18h1v2h-1z M20,18h1v1h-1z M22,18h1v7h-1z M4,19h1v6h-1z M10,19h1v6h-1z M14,19h3v1h-3z M19,19h1v2h-1z M21,19h1v3h-1z M23,19h2v1h-2z M6,20h3v3h-3z M24,20h1v1h-1z M12,21h2v1h-2z M15,21h4v1h-4z M20,21h1v2h-1z M23,21h1v1h-1z M12,22h1v1h-1z M15,22h1v1h-1z M17,22h1v1h-1z M19,22h1v1h-1z M16,23h1v2h-1z M23,23h2v1h-2z M5,24h5v1h-5z M13,24h2v1h-2z M17,24h2v1h-2z M20,24h1v1h-1z M23,24h1v1h-1z" fill="#000000"/>
</svg>
