<?xml version="1.0" encoding="UTF-8"?>
<!DOCTYPE svg PUBLIC "-//W3C//DTD SVG 1.1//EN" "http://www.w3.org/Graphics/SVG/1.1/DTD/svg11.dtd">
<svg xmlns="http://www.w3.org/2000/svg" version="1.1" viewBox="0 0 29 29" stroke="none">
	<rect width="100%" height="100%" fill="#ffffff"/>
	<path d="M4,4h7v1h-7z M12,4h1v2h-1z M16,4h1v1h-1z M18,4h7v1h-7z M4,5h1v6h-1z M10,5h1v6h-1z M13,5h3v1h-3z M18,5h1v6h-1z M24,5h1v6h-1z M6,6h3v3h-3z M16,6h1v1h-1z M20,6h3v3h-3z M12,7h1v4h-1z M13,7h1v1h-1z M15,7h1v2h-1z M14,8h1v1h-1z M5,10h5v1h-5z M14,10h1v1h-1z M16,10h1v1h-1z M19,10h5v1h-5z M13,11h1v2h-1z M7,12h1v1h-1z M10,12h1v1h-1z M14,12h1v4h-1z M19,12h1v6h-1z M20,12h2v1h-2z M23,12h1v3h-1z M24,12h1v1h-1z M4,13h1v1h-1z M6,13h1v1h-1z M8,13h1v1h-1z M12,13h1v2h-1z M15,13h2v1h-2z M21,13h1v1h-1z M5,14h1v1h-1z M10,14h2v1h-2z M16,14h1v1h-1z M20,14h1v2h-1z M22,14h1v1h-1z M24,14h1v2h-1z M4,15h1v2h-1z M6,15h3v1h-3z M11,15h1v1h-1z M13,15h1v3h-1z M17,15h2v1h-2z M5,16h1v1h-1z M7,16h4v1h-4z M15,16h1v2h-1z M21,16h1v1h-1z M23,16h1v3h-1z M12,17h1v1h-1z M17,17h1v1h-1z M20,17h1v2h-1z M24,17h1v1h-1z M4,18h7v1h-7z M14,18h1v1h-1z M16,18h1v1h-1z M18,18h1v1h-1z M22,18h1v3h-1z M4,19h1v6h-1z M10,19h1v6h-1z M13,19h1v1h-1z M15,19h1v2h-1z M19,19h1v3h-1z M21,19h1v3h-1z M24,19h1v4h-1z M6,20h3v3h-3z M14,20h1v2h-1z M17,20h2v2h-2z M20,20h1v1h-1z M23,20h1v2h-1z M12,21h1v1h-1z M16,21h1v1h-1z M13,22h1v3h-1z M15,22h1v1h-1z M17,22h1v2h-1z M20,22h1v2h-1z M22,22h1v1h-1z M14,23h1v1h-1z M18,23h2v1h-2z M23,23h1v1h-1z M5,24h5v1h-5z M16,24h1v1h-1z M18,24h1v1h-1z M22,24h1v1h-1z" fill="#000000"/>
</svg>
