<?xml version="1.0" encoding="UTF-8"?>
<!DOCTYPE svg PUBLIC "-//W3C//DTD SVG 1.1//EN" "http://www.w3.org/Graphics/SVG/1.1/DTD/svg11.dtd">
<svg xmlns="http://www.w3.org/2000/svg" version="1.1" viewBox="0 0 29 29" stroke="none">
	<rect width="100%" height="100%" fill="#ffffff"/>
	<path d="M4,4h7v1h-7z M14,4h1v1h-1z M16,4h1v8h-1z M18,4h7v1h-7z M4,5h1v6h-1z M10,5h1v6h-1z M12,5h1v6h-1z M13,5h1v2h-1z M15,5h1v1h-1z M18,5h1v6h-1z M24,5h1v6h-1z M6,6h3v3h-3z M20,6h3v3h-3z M14,8h1v4h-1z M15,8h1v1h-1z M5,10h5v1h-5z M19,10h5v1h-5z M6,12h1v2h-1z M9,12h5v1h-5z M15,12h1v4h-1z M17,12h1v1h-1z M19,12h5v1h-5z M4,13h2v2h-2z M7,13h1v1h-1z M9,13h1v1h-1z M11,13h2v1h-2z M18,13h1v2h-1z M21,13h1v2h-1z M10,14h1v1h-1z M17,14h1v3h-1z M22,14h3v1h-3z M4,15h1v2h-1z M6,15h2v1h-2z M9,15h1v1h-1z M11,15h1v1h-1z M14,15h1v1h-1z M16,15h1v1h-1z M20,15h1v1h-1z M23,15h2v1h-2z M10,16h1v1h-1z M13,16h1v1h-1z M18,16h1v4h-1z M22,16h1v1h-1z M24,16h1v5h-1z M12,17h1v3h-1z M23,17h1v1h-1z M4,18h7v1h-7z M13,18h1v1h-1z M16,18h1v7h-1z M19,18h4v1h-4z M4,19h1v6h-1z M10,19h1v6h-1z M14,19h1v1h-1z M17,19h1v1h-1z M22,19h2v1h-2z M6,20h3v3h-3z M13,20h1v1h-1z M21,20h1v1h-1z M23,20h1v1h-1z M14,21h1v1h-1z M18,21h2v1h-2z M22,21h1v1h-1z M12,22h2v1h-2z M15,22h1v1h-1z M17,22h1v1h-1z M20,22h1v3h-1z M23,22h1v3h-1z M24,22h1v1h-1z M14,23h1v2h-1z M18,23h1v2h-1z M22,23h1v1h-1z M5,24h5v1h-5z M15,24h1v1h-1z M17,24h1v1h-1z M21,24h1v1h-1z M24,24h1v1h-1z" fill="#000000"/>
</svg>
