<?xml version="1.0" encoding="UTF-8"?>
<!DOCTYPE svg PUBLIC "-//W3C//DTD SVG 1.1//EN" "http://www.w3.org/Graphics/SVG/1.1/DTD/svg11.dtd">
<svg xmlns="http://www.w3.org/2000/svg" version="1.1" viewBox="0 0 29 29" stroke="none">
	<rect width="100%" height="100%" fill="#ffffff"/>
	<path d="M4,4h7v1h-7z M13,4h2v1h-2z M16,4h1v2h-1z M18,4h7v1h-7z M4,5h1v6h-1z M10,5h1v6h-1z M12,5h1v6h-1z M14,5h1v2h-1z M18,5h1v6h-1z M24,5h1v6h-1z M6,6h3v3h-3z M20,6h3v3h-3z M13,7h1v2h-1z M15,7h2v1h-2z M14,8h2v1h-2z M16,9h1v3h-1z M5,10h5v1h-5z M14,10h1v2h-1z M19,10h5v1h-5z M13,11h1v3h-1z M6,12h1v1h-1z M9,12h4v1h-4z M17,12h1v2h-1z M19,12h5v1h-5z M4,13h1v4h-1z M7,13h1v1h-1z M9,13h1v2h-1z M12,13h1v2h-1z M15,13h2v1h-2z M23,13h1v5h-1z M5,14h1v1h-1z M10,14h2v1h-2z M18,14h1v1h-1z M21,14h2v1h-2z M24,14h1v2h-1z M6,15h2v1h-2z M16,15h2v1h-2z M20,15h2v1h-2z M6,16h1v1h-1z M8,16h1v1h-1z M10,16h1v1h-1z M12,16h4v1h-4z M17,16h1v7h-1z M22,16h1v3h-1z M12,17h1v3h-1z M14,17h1v8h-1z M18,17h1v3h-1z M21,17h1v1h-1z M24,17h1v4h-1z M4,18h7v1h-7z M19,18h2v1h-2z M4,19h1v6h-1z M10,19h1v6h-1z M23,19h1v2h-1z M6,20h3v3h-3z M16,20h1v3h-1z M19,20h1v5h-1z M20,20h1v1h-1z M22,20h1v1h-1z M21,21h1v2h-1z M12,22h2v1h-2z M20,22h1v3h-1z M23,22h1v3h-1z M24,22h1v1h-1z M15,23h1v2h-1z M18,23h1v1h-1z M22,23h1v2h-1z M5,24h5v1h-5z M13,24h1v1h-1z M21,24h1v1h-1z M24,24h1v1h-1z" fill="#000000"/>
</svg>
