<?xml version="1.0" encoding="UTF-8"?>
<!DOCTYPE svg PUBLIC "-//W3C//DTD SVG 1.1//EN" "http://www.w3.org/Graphics/SVG/1.1/DTD/svg11.dtd">
<svg xmlns="http://www.w3.org/2000/svg" version="1.1" viewBox="0 0 29 29" stroke="none">
	<rect width="100%" height="100%" fill="#ffffff"/>
	<path d="M4,4h7v1h-7z M12,4h1v3h-1z M14,4h1v2h-1z M16,4h1v1h-1z M18,4h7v1h-7z M4,5h1v6h-1z M10,5h1v6h-1z M18,5h1v6h-1z M24,5h1v6h-1z M6,6h3v3h-3z M16,6h1v1h-1z M20,6h3v3h-3z M14,7h1v5h-1z M15,8h1v2h-1z M12,9h1v6h-1z M13,9h1v1h-1z M5,10h5v1h-5z M16,10h1v1h-1z M19,10h5v1h-5z M15,11h1v2h-1z M6,12h3v1h-3z M10,12h1v1h-1z M16,12h4v1h-4z M22,12h2v3h-2z M24,12h1v1h-1z M4,13h1v4h-1z M5,13h1v1h-1z M7,13h1v3h-1z M8,13h1v1h-1z M13,13h1v1h-1z M17,13h1v1h-1z M19,13h1v1h-1z M21,13h1v1h-1z M9,14h3v1h-3z M14,14h1v1h-1z M18,14h1v2h-1z M20,14h1v3h-1z M24,14h1v2h-1z M5,15h1v2h-1z M9,15h1v2h-1z M11,15h1v1h-1z M17,15h1v1h-1z M19,15h1v1h-1z M22,15h1v2h-1z M6,16h1v1h-1z M8,16h1v1h-1z M10,16h1v1h-1z M12,16h3v1h-3z M16,16h1v1h-1z M12,17h1v1h-1z M14,17h2v1h-2z M17,17h1v4h-1z M19,17h1v8h-1z M4,18h7v1h-7z M15,18h1v3h-1z M16,18h1v1h-1z M21,18h1v1h-1z M23,18h1v2h-1z M4,19h1v6h-1z M10,19h1v6h-1z M18,19h1v1h-1z M22,19h1v3h-1z M24,19h1v1h-1z M6,20h3v3h-3z M12,20h3v1h-3z M16,20h1v1h-1z M21,20h1v1h-1z M12,21h1v2h-1z M14,22h1v1h-1z M17,22h1v1h-1z M20,22h2v1h-2z M13,23h1v1h-1z M15,23h1v1h-1z M20,23h1v1h-1z M23,23h1v1h-1z M5,24h5v1h-5z M18,24h1v1h-1z M21,24h1v1h-1z" fill="#000000"/>
</svg>
