<?xml version="1.0" encoding="UTF-8"?>
<!DOCTYPE svg PUBLIC "-//W3C//DTD SVG 1.1//EN" "http://www.w3.org/Graphics/SVG/1.1/DTD/svg11.dtd">
<svg xmlns="http://www.w3.org/2000/svg" version="1.1" viewBox="0 0 29 29" stroke="none">
	<rect width="100%" height="100%" fill="#ffffff"/>
	<path d="M4,4h7v1h-7z M12,4h2v1h-2z M15,4h2v1h-2z M18,4h7v1h-7z M4,5h1v6h-1z M10,5h1v6h-1z M18,5h1v6h-1z M24,5h1v6h-1z M6,6h3v3h-3z M13,6h1v1h-1z M15,6h1v3h-1z M20,6h3v3h-3z M12,7h1v1h-1z M14,7h1v4h-1z M16,7h1v2h-1z M13,8h1v1h-1z M5,10h5v1h-5z M12,10h1v1h-1z M16,10h1v2h-1z M19,10h5v1h-5z M13,11h1v3h-1z M15,11h1v1h-1z M6,12h1v2h-1z M8,12h2v3h-2z M10,12h1v1h-1z M12,12h1v4h-1z M17,12h1v1h-1z M21,12h1v1h-1z M24,12h1v1h-1z M11,13h1v1h-1z M15,13h1v1h-1z M18,13h2v1h-2z M22,13h1v7h-1z M4,14h2v1h-2z M7,14h1v2h-1z M10,14h1v1h-1z M17,14h1v1h-1z M19,14h1v4h-1z M21,14h1v2h-1z M23,14h2v1h-2z M4,15h1v1h-1z M6,15h1v1h-1z M9,15h1v1h-1z M13,15h1v1h-1z M16,15h1v2h-1z M18,15h1v8h-1z M20,15h1v1h-1z M24,15h1v6h-1z M10,16h1v1h-1z M15,16h1v1h-1z M17,16h1v1h-1z M12,17h1v1h-1z M14,17h1v1h-1z M21,17h1v1h-1z M23,17h1v2h-1z M4,18h7v1h-7z M17,18h1v1h-1z M20,18h1v1h-1z M4,19h1v6h-1z M10,19h1v6h-1z M12,19h4v1h-4z M19,19h1v3h-1z M6,20h3v3h-3z M12,20h1v1h-1z M15,20h3v1h-3z M17,21h1v1h-1z M21,21h1v1h-1z M23,21h1v1h-1z M12,22h4v1h-4z M20,22h1v3h-1z M22,22h1v1h-1z M24,22h1v1h-1z M13,23h1v1h-1z M19,23h1v1h-1z M5,24h5v1h-5z M14,24h2v1h-2z M17,24h1v1h-1z M21,24h1v1h-1z M24,24h1v1h-1z" fill="#000000"/>
</svg>
